<?xml version="1.0" encoding="UTF-8" standalone="no"?>
<!DOCTYPE svg PUBLIC "-//W3C//DTD SVG 1.1//EN" "http://www.w3.org/Graphics/SVG/1.1/DTD/svg11.dtd">
<svg width="100%" height="100%" viewBox="0 0 27 26" version="1.1" xmlns="http://www.w3.org/2000/svg" xmlns:xlink="http://www.w3.org/1999/xlink" xml:space="preserve" xmlns:serif="http://www.serif.com/" style="fill-rule:evenodd;clip-rule:evenodd;stroke-linecap:square;stroke-miterlimit:3;">
    <g id="Up-Arrow" serif:id="Up Arrow" transform="matrix(0.846154,0,0,-0.833333,-426.516,246.957)">
        <g transform="matrix(5.60487e-17,0.915345,-1.41316,8.65313e-17,1285.98,-107.29)">
            <path d="M428.345,546.634L437.31,546.634L437.31,537.431L428.345,537.431L428.345,532.834L411.091,542.033L428.345,551.232L428.345,546.634ZM427.471,550.039L412.453,542.033L427.471,534.026L427.471,537.989L436.436,537.989L436.436,546.077L427.471,546.077L427.471,550.039Z"/>
        </g>
        <g transform="matrix(1,0,0,1,100,-260)">
            <path d="M408.054,544.554L413.497,544.554L413.497,553L426.582,553L426.582,544.631L431.86,544.631" style="fill:none;stroke:black;stroke-width:0.87px;"/>
        </g>
    </g>
</svg>
