<?xml version="1.0" encoding="UTF-8" standalone="no"?>
<!DOCTYPE svg PUBLIC "-//W3C//DTD SVG 1.1//EN" "http://www.w3.org/Graphics/SVG/1.1/DTD/svg11.dtd">
<svg width="100%" height="100%" viewBox="0 0 26 26" version="1.1" xmlns="http://www.w3.org/2000/svg" xmlns:xlink="http://www.w3.org/1999/xlink" xml:space="preserve" xmlns:serif="http://www.serif.com/" style="fill-rule:evenodd;clip-rule:evenodd;stroke-linejoin:round;stroke-miterlimit:2;">
    <g id="Drag-Corner" serif:id="Drag Corner" transform="matrix(0.769231,0,0,0.783194,-386.911,-394.674)">
        <g transform="matrix(1.9594,0,0,1.83465,-285.405,-899.861)">
            <rect x="405.884" y="768.464" width="11.738" height="12.536" style="fill:white;"/>
            <path d="M417.622,768.464L417.622,781L405.884,781L405.884,768.464L417.622,768.464ZM416.959,769.159L406.547,769.159C406.547,769.159 406.547,780.304 406.547,780.304L416.959,780.304L416.959,769.159Z"/>
        </g>
        <g transform="matrix(1.9594,0,0,1.83465,-286.405,-900.861)">
            <rect x="405.884" y="768.464" width="11.738" height="12.536" style="fill:white;"/>
            <path d="M417.622,768.464L417.622,781L405.884,781L405.884,768.464L417.622,768.464ZM416.959,769.159L406.547,769.159C406.547,769.159 406.547,780.304 406.547,780.304L416.959,780.304L416.959,769.159Z"/>
        </g>
        <g transform="matrix(1.19268,0,0,1.11674,22.7947,-350.713)">
            <rect x="405.884" y="768.464" width="11.738" height="12.536" style="fill:white;"/>
            <path d="M417.622,768.464L417.622,781L405.884,781L405.884,768.464L417.622,768.464ZM416.532,769.607C416.532,769.607 406.974,769.607 406.974,769.607C406.974,769.607 406.974,779.857 406.974,779.857C406.974,779.857 416.532,779.857 416.532,779.857L416.532,769.607Z"/>
        </g>
    </g>
</svg>
